<svg xmlns="http://www.w3.org/2000/svg" xmlns:xlink="http://www.w3.org/1999/xlink" width="536.25" height="534" viewBox="0 0 536.25 534"><defs><clipPath id="clip-path"><rect id="Ret&#xE2;ngulo_9" data-name="Ret&#xE2;ngulo 9" width="534" height="534" transform="translate(-0.197)" fill="none"></rect></clipPath><clipPath id="clip-path-2"><rect id="Ret&#xE2;ngulo_12" data-name="Ret&#xE2;ngulo 12" width="452.768" height="449.114" fill="none"></rect></clipPath></defs><g id="forma_banner_principal" data-name="forma banner principal" transform="translate(-597.613 -120)"><g id="Camada_1-2" transform="translate(598.809 120)"><g id="Grupo_10" data-name="Grupo 10" transform="translate(0 0)" clip-path="url(#clip-path)"><path id="Caminho_124" data-name="Caminho 124" d="M237.8,184.588A235.814,235.814,0,0,1,33.722,66.24L6.09,82.112a268.08,268.08,0,0,0,95.93,97.262,266.527,266.527,0,0,0,135.843,37.074c5.851,0,11.76-.174,17.61-.579l-2.085-31.8c-5.156.348-10.369.521-15.525.521" transform="translate(29.235 317.526)" fill="#ffd31c"></path><path id="Caminho_125" data-name="Caminho 125" d="M85.195,7.29,67.99,34.111A234.289,234.289,0,0,1,176.2,232.053a234.887,234.887,0,0,1-58.392,155.075l23.925,21.028a266.836,266.836,0,0,0,66.328-176.1A266.124,266.124,0,0,0,85.195,7.29" transform="translate(325.913 34.987)" fill="#ffd31c"></path><path id="Caminho_126" data-name="Caminho 126" d="M31.861,176.025A233.171,233.171,0,0,1,76.813,37.749L51.035,18.98A265.024,265.024,0,0,0,0,176.025H31.861" transform="translate(0.047 91.015)" fill="#ffd31c"></path><path id="Caminho_127" data-name="Caminho 127" d="M101.67,30.007A269.469,269.469,0,0,0,8.81,109.949l25.778,18.769a236.1,236.1,0,0,1,190.18-96.857V0a267.351,267.351,0,0,0-123.04,30.007" transform="translate(42.272 0.047)" fill="#ffd31c"></path><path id="Caminho_128" data-name="Caminho 128" d="M58.107,33.474,45.884,25.19A216.1,216.1,0,0,0,78.556,305.217l10.022-10.891A201.36,201.36,0,0,1,58.165,33.474" transform="translate(42.272 120.779)" fill="#ffd31c"></path><path id="Caminho_129" data-name="Caminho 129" d="M310.949,35.5l-14.192,4.171a201.761,201.761,0,0,1,8.226,57.118c0,110.933-90.253,201.186-201.186,201.186a200.95,200.95,0,0,1-65-10.717l-4.75,14.019A215.561,215.561,0,0,0,103.8,312.8c119.1,0,216.016-96.915,216.016-216.016A216.269,216.269,0,0,0,311.007,35.5" transform="translate(163.244 170.193)" fill="#ffd31c"></path><path id="Caminho_130" data-name="Caminho 130" d="M163.563,8.8A215.324,215.324,0,0,0,21.58,62.036l9.732,11.122a200.309,200.309,0,0,1,67.255-38.87h0a201.488,201.488,0,0,1,219.26,61.346l11.354-9.5A215.668,215.668,0,0,0,163.563,8.8" transform="translate(103.477 42.224)" fill="#ffd31c"></path><path id="Caminho_131" data-name="Caminho 131" d="M105.9,354.326A181.98,181.98,0,0,0,196.73,378.6a179.988,179.988,0,0,0,80.347-18.653l-2.027-4.055A177.418,177.418,0,0,1,19.294,196.644C19.294,98.8,98.888,19.208,196.73,19.208a176.434,176.434,0,0,1,57.349,9.5l1.448-4.287a182.279,182.279,0,0,0-58.855-9.732C96.339,14.69,14.66,96.311,14.66,196.7a181.915,181.915,0,0,0,91.18,157.8" transform="translate(70.31 70.454)" fill="#ffd31c"></path><path id="Caminho_132" data-name="Caminho 132" d="M73.4,288.316l3.128,3.3a180.59,180.59,0,0,0,55.9-131.266A181.9,181.9,0,0,0,68.994,22.25L66.04,25.726a177.246,177.246,0,0,1,61.868,134.626A175.948,175.948,0,0,1,73.4,288.316" transform="translate(316.567 106.688)" fill="#ffd31c"></path></g></g><g id="Camada_1-2-2" data-name="Camada_1-2" transform="matrix(0.978, -0.208, 0.208, 0.978, 597.613, 214.244)"><g id="Grupo_13" data-name="Grupo 13" clip-path="url(#clip-path-2)"><path id="Caminho_175" data-name="Caminho 175" d="M1.138,149.775A160.66,160.66,0,0,0,21.993,250.1a162.56,162.56,0,0,0,99.451,75.819,165.831,165.831,0,0,0,42.636,5.6A163.732,163.732,0,0,0,245.7,309.647,162.5,162.5,0,0,0,199.407,9.832a10.373,10.373,0,1,0-11.694,10.72,10.423,10.423,0,0,0,10.769-5.993,158.051,158.051,0,0,1,102.96,75.185c43.805,75.429,17.737,172.249-58.18,215.811a158.989,158.989,0,0,1-79.23,21.245,160.671,160.671,0,0,1-41.418-5.457,157.791,157.791,0,0,1-82.007-252.6,9.179,9.179,0,0,0,10.574-1.9,9.045,9.045,0,0,0-.244-12.864,9.252,9.252,0,0,0-12.961.244A9.072,9.072,0,0,0,37,65.624a162.467,162.467,0,0,0-35.96,84.151M188.054,18.164a7.884,7.884,0,1,1,2-15.641,7.961,7.961,0,0,1,6.87,6.822,6.86,6.86,0,0,1,0,2,8.535,8.535,0,0,1-.877,2.729,7.978,7.978,0,0,1-7.991,4.142Z" transform="translate(61.817 55.803)" fill="#fff"></path><path id="Caminho_176" data-name="Caminho 176" d="M1.608.195C.585.049.146,0,0,0,.536.049,5.847.731,1.608.195" transform="translate(247.97 76.16)" fill="#fff"></path><path id="Caminho_177" data-name="Caminho 177" d="M345.668,75.805A193.058,193.058,0,0,0,216.055,1.448,193.961,193.961,0,0,0,76.307,38.675,190.735,190.735,0,0,0,8.918,248.3,12.08,12.08,0,0,0,3.851,263.4a12.233,12.233,0,0,0,15.982,6.481A12.106,12.106,0,0,0,26.362,254c.633,1.559,1.316,3.07,0,0s-.633-1.559,0,0A12.222,12.222,0,0,0,13.45,246.69,186.125,186.125,0,0,1,143.843,11.145,187.218,187.218,0,0,1,286.076,29.758,186.3,186.3,0,0,1,162.31,374.987a10.666,10.666,0,0,0-8.186-10.038,10.809,10.809,0,0,0-13.059,7.845,10.7,10.7,0,0,0,7.894,12.961,10.821,10.821,0,0,0,12.425-6.042,191.63,191.63,0,0,0,30.8,2.485c6.14,0,12.328-.292,18.516-.877a194.416,194.416,0,0,0,57.79-14.715,190.633,190.633,0,0,0,77.281-290.8M14.327,249.467a9.334,9.334,0,0,1,9.356,5.652,9.223,9.223,0,0,1-5.019,12.133,9.366,9.366,0,0,1-12.23-4.97h0a9.274,9.274,0,0,1,3.313-11.256,9.522,9.522,0,0,1,1.705-.926,8.555,8.555,0,0,1,2.826-.682Z" transform="translate(33.328 33.538)" fill="#fff"></path><path id="Caminho_178" data-name="Caminho 178" d="M450.819,153.83a12.661,12.661,0,0,0-13.936-8.966A222.37,222.37,0,0,0,409.6,94.189,226.423,226.423,0,0,0,66.122,65.732a224.241,224.241,0,0,0-48.386,71.336A223.294,223.294,0,0,0,66.122,383.04a227.035,227.035,0,0,0,258.739,43.026,227.7,227.7,0,0,0,67-49.75,14.307,14.307,0,1,0-4-20.855c.585-.78,1.169-1.559,1.364-1.754-.1.146-.487.633-1.364,1.754-2.388,3.119-1.218,1.559,0,0a14.2,14.2,0,0,0,.341,17.688A220.564,220.564,0,0,1,225.7,444C103.934,443.949,4.824,345.423,4.824,224.386S103.934,4.775,225.751,4.775c92.727,0,174.2,56.377,206.6,141.6A12.534,12.534,0,0,0,426.5,160.8a12.726,12.726,0,0,0,15.69,8.625,12.6,12.6,0,0,0,8.673-15.593M390.593,357.459a11.054,11.054,0,0,1,15.4-2.1,10.9,10.9,0,0,1,2.1,15.3h0a11.062,11.062,0,0,1-13.838,3.07,10.407,10.407,0,0,1-1.559-.975,12.748,12.748,0,0,1-2.144-2.144,10.89,10.89,0,0,1,0-13.156Z" transform="translate(0 0.195)" fill="#fff"></path></g></g></g></svg>